<?xml version="1.0" encoding="UTF-8" standalone="no"?>
<svg
   xmlns:dc="http://purl.org/dc/elements/1.1/"
   xmlns:cc="http://creativecommons.org/ns#"
   xmlns:rdf="http://www.w3.org/1999/02/22-rdf-syntax-ns#"
   xmlns:svg="http://www.w3.org/2000/svg"
   xmlns="http://www.w3.org/2000/svg"
   xmlns:sodipodi="http://sodipodi.sourceforge.net/DTD/sodipodi-0.dtd"
   xmlns:inkscape="http://www.inkscape.org/namespaces/inkscape"
   id="Layer_1"
   data-name="Layer 1"
   viewBox="0 0 3514.59 1777.06"
   version="1.1"
   sodipodi:docname="logo_p.svg"
   inkscape:version="1.0.2-2 (e86c870879, 2021-01-15)">
  <metadata
     id="metadata53">
    <rdf:RDF>
      <cc:Work
         rdf:about="">
        <dc:format>image/svg+xml</dc:format>
        <dc:type
           rdf:resource="http://purl.org/dc/dcmitype/StillImage" />
        <dc:title>Completo Preto</dc:title>
      </cc:Work>
    </rdf:RDF>
  </metadata>
  <sodipodi:namedview
     pagecolor="#ffffff"
     bordercolor="#999999"
     borderopacity="1"
     objecttolerance="10"
     gridtolerance="10"
     guidetolerance="10"
     inkscape:pageopacity="0"
     inkscape:pageshadow="2"
     inkscape:window-width="1920"
     inkscape:window-height="1017"
     id="namedview51"
     showgrid="false"
     inkscape:zoom="0.22292054"
     inkscape:cx="1149.7501"
     inkscape:cy="721.82207"
     inkscape:window-x="-8"
     inkscape:window-y="-8"
     inkscape:window-maximized="1"
     inkscape:current-layer="Layer_1" />
  <defs
     id="defs4">
    <style
       id="style2">.cls-1,.cls-2{fill:#1d1d1b;}.cls-2{stroke:#1d1d1b;stroke-miterlimit:10;stroke-width:0.25px;}</style>
  </defs>
  <title
     id="title6">Completo Preto</title>
  <path
     class="cls-1"
     d="m 3210.1906,582.15106 -80.0214,-25.68163 -0.3951,70.27548 -37.2186,-10.98384 q 0,-35.87526 0,-71.75053 l -28.2103,-9.24539 0.3688,72.6461 -29.343,-9.06101 q 0.3161,-36.27037 0.6848,-72.56709 l -33.2148,-10.77311 q 0.237,36.66548 0.5005,73.33096 l -31.5028,-9.45613 q 0,-36.87619 0,-73.88408 l -36.8763,-11.85306 0.2371,74.72697 -22.8633,-6.79575 q 0.2108,-37.58738 0.4215,-75.17477 l -46.5958,-15.27728 q -0.158,37.98249 -0.3423,75.99131 l -21.4409,-6.47968 q 0,-38.16686 0.2108,-76.3864 l -63.2164,-20.54532 q 0,38.95708 -0.1318,77.8878 l -21.0721,-6.45334 q 0.1845,-39.1151 0.4479,-78.17753 l -63.5325,-20.43995 -0.316,79.02042 -21.3619,-6.29529 c 0,-26.57721 0,-50.54674 0,-75.28012 l -58.7122,-19.17562 v 75.56985 l -29.3956,-8.90296 q 0,-38.16686 0,-79.23115 l -73.9631,-23.99587 q 0,41.72279 0,83.44558 l -42.1442,-12.854 0.237,-83.867 -74.1211,-24.23294 0.158,85.71083 -42.3286,-12.98569 q 0,-43.14515 0,-86.26397 l -84.025,-27.84153 -0.2371,88.71359 -52.9437,-16.17284 v -88.58189 l -94.3767,-30.60724 q 0,45.51575 0,90.97884 l -52.4696,-16.22552 q 0,-45.83185 0.2635,-91.6637 l -106.1771,-33.32028 0.8692,93.1124 -73.7525,-22.67886 v -94.9562 L 1767.5938,117.59 q 0,48.65023 -0.2635,97.27413 l -62.7949,-19.33366 q -0.237,-49.46679 -0.5267,-98.959917 L 1619.4568,35.988231 1443.689,94.726745 v 94.113325 l -93.9817,28.97416 -147.8735,46.0689 -115.3171,33.89977 -0.3951,-88.45019 -103.12166,33.50465 q 0,43.38221 0,86.76442 l -62.58418,18.80687 q 0,-42.51299 -0.21073,-84.9733 l -93.95527,30.34384 q 0,41.77547 -0.21073,83.55093 l -62.39977,19.22831 q -0.23707,-41.06429 -0.42144,-82.12857 l -104.49134,33.76807 1.1853,79.49454 -42.64469,12.93301 q -0.42144,-39.19413 -0.9219,-78.4146 l -93.53385,30.21214 q 0.63217,38.4566 1.31701,76.88687 l -41.8018,12.53791 -2.63401,-75.59621 -82.39197,26.34015 q 1.02727,37.27129 2.02819,74.48991 l -44.77824,13.17008 q -1.36968,-35.98063 -2.63401,-71.98761 l -88.23948,27.89422 -6.13725,628.21226 369.13074,34.2423 -4.18808,-367.5767 140.76171,-24.91777 q 3.0818,202.16059 6.18994,404.37387 c 98.11699,7.6123 177.05841,18.4381 228.92217,26.6035 254.60374,39.5893 370.50044,91.9008 571.81814,79.2575 a 1041.6999,1041.6999 0 0 0 125.4844,-15.5407 l 3.793,-529.04171 a 233.68973,233.68973 0 0 1 157.0399,-176.47895 c 34.4792,15.14559 86.9224,45.06798 119.3735,102.19976 21.0722,37.29763 25.3128,71.75054 27.4464,90.13596 17.5953,152.45673 15.3037,434.87574 14.9876,467.93254 l 120.1638,-13.1699 v -46.2007 l 70.4072,-6.4007 v -50.0462 l 52.6802,-3.714 V 642.91776 l 1.9756,0.23707 v -2.79206 l 94.8244,10.53606 v 425.81467 l 52.6803,-3.7139 v 38.5092 l 52.6802,-4.8202 v 40.1424 l 118.9521,-13.1701 c 0,-12.1428 0,-24.2593 0,-36.4021 a 4.3988035,4.3988035 0 0 1 1.4488,-2.95 c 10.4043,-8.8767 20.8086,-17.5953 31.0813,-26.3402 l 2.9764,-2.634 -13.6704,1.001 v -2.16 c 0,0 1.6857,-47.9917 1.5804,-71.98756 0,-2.1599 0.6584,-2.84475 3.1607,-2.76573 a 16.357228,16.357228 0 0 0 4.0565,-0.28974 v -54.99821 h 8.7975 v -0.81654 q 0,-68.98484 0,-137.96966 a 4.7148852,4.7148852 0 0 0 -1.7647,-3.76664 c -3.5032,-3.18715 -6.8221,-6.55869 -10.4045,-9.71951 a 3.4768986,3.4768986 0 0 1 -1.2115,-4.34613 l 22.231,1.05361 c 0,-1.76479 0.2898,-3.31886 0.3424,-4.89926 a 8.402505,8.402505 0 0 1 1.6859,-6.21628 c 1.2379,-1.31701 0.7902,-2.92376 -0.2898,-4.50416 -2.1072,-2.97643 -1.8438,-4.39881 1.2907,-6.34798 1.633,-1.00092 2.3179,-2.15989 1.3433,-3.872 a 6.5586951,6.5586951 0 0 1 0,-6.84843 c 3.0027,-5.26803 6.1109,-10.53607 9.4825,-15.80409 2.3442,-3.50324 5.2679,-6.74308 8.1127,-10.53606 a 25.602617,25.602617 0 0 1 3.5033,3.42422 q 7.4015,11.06287 14.487,22.1784 a 18.912221,18.912221 0 0 1 1.9756,4.92561 5.9528718,5.9528718 0 0 1 -0.6849,5.68947 c -0.9746,1.317 -0.5795,2.47597 0.8692,3.63493 3.714,2.89742 3.7666,3.6086 1.0009,7.00649 -1.1852,1.47505 -1.1326,2.21256 0.3688,4.45148 l 16.7259,-8.37617 q 42.7765,-21.49355 83.6037,-41.90716 c 1.475,-0.71118 2.2916,-1.50139 2.1862,-3.18715 a 19.965826,19.965826 0 0 1 0.2898,-4.68855 8.3234845,8.3234845 0 0 1 1.0272,-2.97644 4.2144226,4.2144226 0 0 0 0,-5.26803 c -1.7121,-2.63401 -1.4487,-4.08272 1.08,-5.66313 a 2.8183951,2.8183951 0 0 0 1.159,-4.29344 7.1381782,7.1381782 0 0 1 0.5795,-7.13818 c 2.95,-5.26803 6.1372,-10.27265 9.377,-15.30362 1.6331,-2.63402 3.6086,-4.87292 5.5842,-7.50694 a 15.804084,15.804084 0 0 1 2.6339,2.34427 c 4.1091,6.40065 8.1919,12.82765 12.0374,19.30732 a 42.144226,42.144226 0 0 1 3.0292,7.21721 5.6367902,5.6367902 0 0 1 -0.5795,5.50509 c -0.8429,1.21164 -0.5268,2.31793 0.8166,3.42421 3.1871,2.63402 3.1871,3.66128 1.0535,6.53236 a 3.4505584,3.4505584 0 0 0 -0.3951,3.26617 8.6922465,8.6922465 0 0 1 1.2907,6.5587 c -0.3424,2.81839 0.8166,4.42514 3.477,6.1636 q 44.146,28.71075 85.7897,56.18351 c 0.4215,0.28974 0.8694,0.52681 1.4488,0.86923 a 3.7666402,3.7666402 0 0 0 0,-4.34613 c -1.6595,-2.63401 -1.4224,-4.0037 1.0799,-5.82117 1.1327,-0.81654 1.7385,-1.76479 1.0536,-3.10814 a 7.4542599,7.4542599 0 0 1 0,-6.95379 c 2.0019,-4.10906 4.0828,-8.19178 6.427,-12.09013 2.3443,-3.89834 4.6095,-6.82209 7.1646,-10.53605 a 18.569799,18.569799 0 0 1 2.634,2.84473 c 3.8983,6.45334 7.7177,12.90667 11.4052,19.38634 a 17.358153,17.358153 0 0 1 1.8175,5.42607 7.3488993,7.3488993 0 0 1 -0.5532,3.97737 2.634014,2.634014 0 0 0 0.843,3.81932 c 2.634,1.97551 2.634,3.39788 0.7638,5.66313 a 3.3978782,3.3978782 0 0 0 -0.237,4.05638 10.272655,10.272655 0 0 1 0.9745,3.39788 c 0,2.02819 0,4.08272 0,6.42699 l 16.3837,0.76387 a 2.9764359,2.9764359 0 0 1 -0.8166,3.6086 c -1.9756,1.87014 -3.8193,3.92468 -5.7948,5.79483 a 6.4269943,6.4269943 0 0 0 -2.0546,4.6622 q 0,39.51022 0,79.02043 v 40.24773 c -0.6322,0 8.7976,0 8.7976,0 v 115.36975 l -7.7177,0.5533 1.6068,1.5803 q 11.2472,9.7459 22.3627,19.4127 a 1.4750479,1.4750479 0 0 1 0.4743,1.08 q 0,13.6442 0,27.262 l 144.5282,-15.9357 c 0,-142.63196 0.5532,-182.85335 0.2371,-214.30348 0,-7.05916 1.0799,-34.24219 6.8485,-47.06982 4.0827,-9.14004 20.8086,-21.46723 26.6826,-20.2029 9.8511,5.9002 25.4971,34.68997 26.34,50.04627 0.8956,16.25186 2.16,95.27229 6.9539,223.39073 l 39.9317,-3.7929 z"
     id="path8"
     style="stroke-width:2.63401" />
  <path
     class="cls-2"
     d="m 398.59125,1701.3173 a 35.769912,35.769912 0 0 1 -8.982,27.6045 q -10.32533,11.9057 -28.26297,11.9057 -74.06848,0 -112.68313,-87.0805 a 135.25662,135.25662 0 0 1 -48.91363,8.982 141.70996,141.70996 0 0 1 -101.672946,-40.6429 q -42.43397,-40.6165 -42.43397,-98.5121 a 142.07872,142.07872 0 0 1 40.616497,-101.4622 q 40.669179,-42.6447 98.986249,-42.6447 a 141.18315,141.18315 0 0 1 101.22516,40.6428 q 42.43397,40.6165 42.43397,98.5122 a 146.89896,146.89896 0 0 1 -73.7524,127.4863 q 43.54026,87.5547 100.54032,87.5283 a 29.237556,29.237556 0 0 0 20.88773,-9.6405 26.893284,26.893284 0 0 0 8.29715,-22.6789 30.976006,30.976006 0 0 0 -11.14188,-21.4145 35.638211,35.638211 0 0 0 -23.70612,-8.3235 v -4.03 a 38.904388,38.904388 0 0 1 26.34013,9.4297 34.821666,34.821666 0 0 1 12.22184,24.3383 z m -78.07219,-182.6952 q 0,-56.526 -36.87619,-96.2732 -36.8762,-39.7473 -88.02876,-38.8518 -50.04627,0.9483 -85.36839,41.7492 -35.322126,40.8009 -35.164088,98.3277 0,56.1045 36.718158,95.6147 36.71815,39.5102 87.73901,39.5102 a 106.75659,106.75659 0 0 0 46.12158,-10.3253 q -21.51989,-42.6183 -59.26532,-42.6447 -32.74079,0 -53.86558,13.4862 l -2.63402,-4.0564 a 98.591148,98.591148 0 0 1 55.3143,-16.1465 q 48.46586,0 76.38641,40.3795 a 134.15033,134.15033 0 0 0 43.09247,-51.1526 153.48401,153.48401 0 0 0 15.83042,-69.617 z"
     id="path10" />
  <path
     class="cls-2"
     d="m 431.35837,1622.3232 a 38.377586,38.377586 0 0 1 -11.43162,27.8152 37.244959,37.244959 0 0 1 -27.60446,11.6687 39.852634,39.852634 0 0 1 -39.51022,-39.5102 v -144.5548 h 4.03005 v 144.5548 a 34.452904,34.452904 0 0 0 10.32533,24.9178 33.847081,33.847081 0 0 0 25.15484,10.5361 q 7.63864,0 13.45981,-10.5361 a 50.862812,50.862812 0 0 0 5.82117,-24.9178 v -144.5548 h 19.7551 z"
     id="path12" />
  <path
     class="cls-2"
     d="m 473.10749,1454.4312 c 0,6.585 -3.45055,9.8775 -10.29899,9.8775 q -9.00832,0 -9.00832,-9.8775 0,-9.8776 9.00832,-9.8776 c 6.84844,0 10.29899,3.2926 10.29899,9.8776 z m 0,202.8191 h -19.30731 v -179.5608 h 19.30731 z"
     id="path14" />
  <path
     class="cls-2"
     d="m 587.13396,1657.3293 h -18.85953 v -144.0807 a 49.256063,49.256063 0 0 0 -6.05823,-24.9177 q -6.08457,-10.536 -13.69688,-10.536 a 33.978782,33.978782 0 0 0 -23.33736,8.7712 36.665477,36.665477 0 0 0 -12.11647,22.2048 v 148.5847 h -19.30732 v -179.113 h 19.30732 v 17.5163 q 11.19457,-21.9677 35.45383,-21.9941 a 36.560116,36.560116 0 0 1 27.15669,11.8795 38.667327,38.667327 0 0 1 11.45795,27.6307 z"
     id="path16" />
  <path
     class="cls-2"
     d="m 649.50742,1481.8249 h -14.35538 v 175.5044 h -19.30731 v -175.5044 h -15.25095 v -4.0564 h 15.25095 v -47.5702 h 19.30731 v 47.5702 h 14.35538 z"
     id="path18" />
  <path
     class="cls-2"
     d="m 852.85334,1657.3293 h -19.28102 v -31.4238 q -28.97415,37.7191 -76.3864,37.7191 a 96.194195,96.194195 0 1 1 95.79903,-96.0625 z m -19.28102,-89.7672 q 0,-38.1669 -22.46813,-65.0865 -22.46814,-26.9197 -54.31338,-26.9459 -31.42378,0 -53.86558,26.9459 -22.4418,26.9459 -22.4418,65.0865 0,38.1668 22.4418,65.0865 22.4418,26.9195 53.86558,26.9195 31.89792,0 54.31338,-26.9195 22.41551,-26.9197 22.46813,-65.0865 z"
     id="path20" />
  <path
     class="cls-2"
     d="m 1285.5691,1519.0698 a 141.26217,141.26217 0 0 1 -40.6165,101.2252 q -40.6165,42.434 -98.5384,42.434 a 140.97243,140.97243 0 0 1 -100.9881,-40.4058 q -42.1442,-40.4321 -42.1442,-98.3278 a 141.2095,141.2095 0 0 1 40.6165,-101.1988 q 40.6165,-42.434 98.5384,-42.434 a 140.97243,140.97243 0 0 1 100.9881,40.4059 q 42.1442,40.3794 42.1442,98.3013 z m -18.438,0 q 0,-56.5259 -36.8762,-96.2732 -36.8763,-39.7472 -87.3703,-38.8254 -50.2306,0.922 -85.3684,41.9599 -35.1378,41.038 -35.164,98.0643 0,56.1572 36.8761,95.4041 36.8762,39.2468 87.3703,39.2731 50.0463,0 85.342,-41.0642 35.2958,-41.0644 35.2431,-98.5386 z"
     id="path22" />
  <path
     class="cls-2"
     d="m 1377.6016,1622.3232 a 38.298565,38.298565 0 0 1 -11.4579,27.8152 37.218619,37.218619 0 0 1 -27.6045,11.6687 39.852634,39.852634 0 0 1 -39.5102,-39.5102 v -144.5548 h 3.9773 v 144.5548 a 34.242183,34.242183 0 0 0 10.3253,24.9178 33.794401,33.794401 0 0 0 25.1286,10.5361 c 5.0836,0 9.5878,-3.5034 13.4597,-10.5361 a 50.573071,50.573071 0 0 0 5.8476,-24.9178 v -144.5548 h 19.7551 z"
     id="path24" />
  <path
     class="cls-2"
     d="m 1442.6091,1481.8249 h -14.3817 v 175.5044 h -19.281 v -175.5044 h -15.2773 v -4.0564 h 15.2773 v -47.5702 h 19.281 v 47.5702 h 14.3817 z"
     id="path26" />
  <path
     class="cls-2"
     d="m 1636.1564,1610.6545 a 97.14244,97.14244 0 0 1 -35.0061,38.3776 96.009814,96.009814 0 1 1 -50.7311,-177.5325 94.982548,94.982548 0 0 1 84.8416,51.1788 l -159.3578,65.0865 a 94.113324,94.113324 0 0 0 26.7089,51.3897 q 20.8614,20.4399 47.8073,20.4135 a 65.139169,65.139169 0 0 0 41.9599,-15.0138 92.190493,92.190493 0 0 0 28.0523,-39.7473 z m -17.964,-86.1848 a 82.523661,82.523661 0 0 0 -27.6044,-35.691 66.745918,66.745918 0 0 0 -40.1688,-13.17 q -31.45,0 -53.8656,26.9459 -22.4154,26.9459 -22.4417,65.0865 c 0,3.5822 0.2897,8.9819 0.8955,16.1465 z"
     id="path28" />
  <path
     class="cls-2"
     d="m 1677.4577,1454.4312 c 0,6.585 -3.4505,9.8775 -10.2989,9.8775 q -9.0083,0 -9.0083,-9.8775 0,-9.8776 9.0083,-9.8776 c 6.8484,0 10.2989,3.2926 10.2989,9.8776 z m 0,202.8191 h -19.3072 v -179.5608 h 19.3072 z"
     id="path30" />
  <path
     class="cls-2"
     d="m 1750.1565,1484.9857 c 0,7.902 -4.0299,11.6687 -12.1164,11.6687 -8.0864,0 -12.1165,-3.8721 -12.1165,-11.6687 a 11.984764,11.984764 0 0 1 2.6341,-7.1908 q -8.9557,3.6086 -11.2209,14.8295 v 164.7312 h -19.2284 v -179.5607 h 19.281 v 4.5568 q 6.7695,-9.4561 20.6507,-9.4297 12.1428,-0.079 12.1164,12.0637 z"
     id="path32" />
  <path
     class="cls-2"
     d="m 1954.8457,1568.0098 a 95.008889,95.008889 0 1 1 -27.8151,-67.7731 92.190493,92.190493 0 0 1 27.8151,67.7731 z m -19.2809,0 q 0,-38.1668 -22.2311,-64.8757 -22.2311,-26.7089 -54.1026,-26.7089 -31.4238,0 -53.6285,26.7089 -22.2048,26.7089 -22.2312,64.8757 0,37.6929 22.2312,64.6388 22.231,26.9459 53.6285,26.9195 31.3975,0 53.892,-26.9195 22.4944,-26.9197 22.4417,-64.6388 z"
     id="path34" />
  <path
     class="cls-2"
     d="m 2294.6599,1567.5621 a 96.009814,96.009814 0 1 1 -96.0624,-96.0625 q 48.9136,0 76.7552,38.1405 v -125.6689 h 19.3072 z m -19.3072,0 q 0,-38.1669 -22.4419,-65.0865 -22.4418,-26.9197 -54.3397,-26.9459 -31.3975,0 -53.8656,26.9459 -22.4682,26.9459 -22.4418,65.0865 0,38.1668 22.4418,65.0865 22.4419,26.9195 53.8656,26.9195 31.8453,0 54.3134,-26.9195 22.4682,-26.9197 22.4682,-65.0865 z"
     id="path36" />
  <path
     class="cls-2"
     d="m 2502.4837,1657.3293 h -19.3074 v -31.4238 q -28.7898,37.7191 -76.3864,37.7191 a 96.194195,96.194195 0 1 1 95.7992,-96.0625 z m -19.3074,-89.7672 q 0,-38.1669 -22.4418,-65.0865 -22.4417,-26.9197 -54.3133,-26.9459 -31.3975,0 -53.8656,26.9459 -22.4681,26.9459 -22.4418,65.0865 0,38.1668 22.4418,65.0865 22.4418,26.9195 53.8656,26.9195 31.8716,0 54.3133,-26.9195 22.4418,-26.9197 22.4418,-65.0865 z"
     id="path38" />
  <path
     class="cls-2"
     d="m 2849.4623,1564.8754 a 91.769051,91.769051 0 0 1 -29.1585,67.9839 100.56666,100.56666 0 0 1 -140.0506,0.237 93.955282,93.955282 0 0 1 -11.4579,-122.982 98.90723,98.90723 0 0 1 46.0163,-35.4803 l 1.7911,4.0301 a 93.823583,93.823583 0 0 0 -44.7783,33.452 87.106846,87.106846 0 0 0 -17.2791,52.6802 q 0,37.6929 28.9742,65.0602 28.9741,27.3674 66.6405,27.3938 32.3194,0 55.6831,-27.1568 23.3637,-27.1566 23.3109,-65.2972 0,-37.2976 -20.8614,-61.7412 a 79.310164,79.310164 0 0 0 -53.6285,-28.0523 q -22.9158,-2.634 -36.3757,-16.1465 a 42.144226,42.144226 0 0 1 -12.5642,-33.2413 47.069832,47.069832 0 0 1 13.4598,-31.3974 41.327681,41.327681 0 0 1 30.976,-13.17 44.014376,44.014376 0 0 1 39.0625,65.0865 l -2.239,-0.8956 a 39.32583,39.32583 0 0 0 4.9256,-19.281 40.537477,40.537477 0 0 0 -12.1164,-29.422 39.510211,39.510211 0 0 0 -29.1849,-12.3272 23.706127,23.706127 0 0 0 -19.0703,9.8777 q -7.902,9.8774 -7.902,26.9195 0,33.2413 32.7671,36.3495 a 96.852698,96.852698 0 0 1 66.4299,35.4801 108.31066,108.31066 0 0 1 26.6298,72.0403 z"
     id="path40" />
  <path
     class="cls-2"
     d="m 3045.6437,1610.6545 a 97.14244,97.14244 0 0 1 -35.006,38.3776 96.009814,96.009814 0 1 1 -50.7311,-177.5325 94.982548,94.982548 0 0 1 84.8416,51.1788 l -159.3579,65.0865 a 94.113324,94.113324 0 0 0 26.7088,51.3897 q 20.8614,20.4399 47.8075,20.4135 a 65.139169,65.139169 0 0 0 41.9598,-15.0138 92.190493,92.190493 0 0 0 28.0523,-39.7473 z m -17.964,-86.1848 a 82.708042,82.708042 0 0 0 -27.6045,-35.691 66.745918,66.745918 0 0 0 -40.1686,-13.17 q -31.4502,0 -53.8656,26.9459 -22.4155,26.9459 -22.4418,65.0865 c 0,3.5822 0.2897,8.9819 0.8956,16.1465 z"
     id="path42" />
  <path
     class="cls-2"
     d="m 3119.2644,1484.9857 c 0,7.902 -4.0564,11.6687 -12.1164,11.6687 -8.0601,0 -12.1428,-3.8721 -12.1428,-11.6687 a 11.853063,11.853063 0 0 1 2.6339,-7.1908 q -9.0083,3.6086 -11.2209,14.8295 v 164.7312 h -19.3072 v -179.5607 h 19.3072 v 4.5568 q 6.7168,-9.4561 20.6507,-9.4297 c 8.1391,-0.079 12.1955,3.951 12.1955,12.0637 z"
     id="path44" />
  <path
     class="cls-2"
     d="m 3225.6259,1477.7685 -48.4659,201.107 -48.4922,-201.107 h 19.7551 l 36.8762,151.2979 36.3495,-151.2979 z"
     id="path46" />
  <path
     class="cls-2"
     d="m 3427.1806,1657.3293 h -19.3073 v -31.4238 q -28.7897,37.7191 -76.3863,37.7191 a 96.194195,96.194195 0 1 1 95.799,-96.0625 z m -19.3073,-89.7672 q 0,-38.1669 -22.4417,-65.0865 -22.4419,-26.9197 -54.2345,-26.9459 -31.3973,0 -53.8655,26.9459 -22.4681,26.9459 -22.4419,65.0865 0,38.1668 22.4419,65.0865 22.4418,26.9195 53.8655,26.9195 31.8979,0 54.3135,-26.9195 22.4154,-26.9197 22.3627,-65.0865 z"
     id="path48" />
</svg>
