<?xml version="1.0" encoding="UTF-8" standalone="no"?>
<svg
   xmlns:dc="http://purl.org/dc/elements/1.1/"
   xmlns:cc="http://creativecommons.org/ns#"
   xmlns:rdf="http://www.w3.org/1999/02/22-rdf-syntax-ns#"
   xmlns:svg="http://www.w3.org/2000/svg"
   xmlns="http://www.w3.org/2000/svg"
   xmlns:sodipodi="http://sodipodi.sourceforge.net/DTD/sodipodi-0.dtd"
   xmlns:inkscape="http://www.inkscape.org/namespaces/inkscape"
   id="Layer_1"
   data-name="Layer 1"
   viewBox="0 0 1056 335.99997"
   version="1.1"
   sodipodi:docname="logo_ww.svg"
   inkscape:version="1.0.2-2 (e86c870879, 2021-01-15)"
   width="11in"
   height="3.5in">
  <metadata
     id="metadata53">
    <rdf:RDF>
      <cc:Work
         rdf:about="">
        <dc:format>image/svg+xml</dc:format>
        <dc:type
           rdf:resource="http://purl.org/dc/dcmitype/StillImage" />
        <dc:title>Completo Branco</dc:title>
      </cc:Work>
    </rdf:RDF>
  </metadata>
  <sodipodi:namedview
     pagecolor="#ffffff"
     bordercolor="#999999"
     borderopacity="1"
     objecttolerance="10"
     gridtolerance="10"
     guidetolerance="10"
     inkscape:pageopacity="0"
     inkscape:pageshadow="2"
     inkscape:window-width="1920"
     inkscape:window-height="1017"
     id="namedview51"
     showgrid="false"
     inkscape:zoom="0.6305145"
     inkscape:cx="469.57139"
     inkscape:cy="80.610714"
     inkscape:window-x="-8"
     inkscape:window-y="-8"
     inkscape:window-maximized="1"
     inkscape:current-layer="g50"
     inkscape:document-rotation="0"
     units="in"
     width="10in" />
  <defs
     id="defs4">
    <style
       id="style2">.cls-1,.cls-2{fill:#fff;}.cls-2{stroke:#fff;stroke-miterlimit:10;stroke-width:0.25px;}</style>
  </defs>
  <title
     id="title6">Completo Branco</title>
  <g
     id="g50"
     transform="matrix(1.1101887,0,0,1.1101887,-413.94077,-33.04666)"
     style="fill:#ffffff">
    <path
       class="cls-1"
       d="m 1068.5239,124.4207 -11.9724,-4.21191 -0.059,11.52542 -5.5759,-1.81434 v -11.76729 l -4.2302,-1.51631 0.055,11.9142 -4.3959,-1.48602 q 0.055,-5.94845 0.103,-11.90126 l -4.9721,-1.7668 0.071,12.02651 -4.7314,-1.53792 q 0,-6.04775 0,-12.11718 l -5.5246,-1.94395 0.035,12.2555 -3.4291,-1.11454 q 0.035,-6.16447 0.067,-12.32888 l -6.9807,-2.50552 q -0.028,6.22925 -0.051,12.46276 l -3.2122,-1.06267 q 0,-6.25944 0.031,-12.52759 l -9.4706,-3.36947 q 0,6.38905 0,12.77383 l -3.1569,-1.05841 q 0.035,-6.41497 0.067,-12.82134 l -9.51402,-3.352222 -0.0471,12.959622 -3.20029,-1.03245 V 96.760638 l -8.8274,-3.144892 v 12.393684 l -4.4038,-1.46007 q 0,-6.259516 0,-12.99418 l -11.07665,-3.935322 q 0,6.842598 0,13.685282 l -6.33349,-2.108086 q 0,-6.877234 0.0315,-13.754458 l -11.10031,-3.974212 0.0239,14.056748 -6.34527,-2.129686 V 79.247928 l -12.58799,-4.566068 -0.0397,14.549274 -7.93157,-2.652422 V 72.046734 l -14.13888,-5.019636 v 14.920786 l -7.86458,-2.661046 q 0.0239,-7.516554 0.0434,-15.03308 l -15.90267,-5.46896 q 0.0592,7.6418 0.12625,15.270702 l -11.04905,-3.719352 v -15.56883 l -18.68075,-6.53596 q -0.0239,7.97881 -0.0397,15.95328 l -9.4075,-3.17076 q -0.0434,-8.11269 -0.0789,-16.22972 l -12.66693,-9.93573 -26.33228,9.63334 q 0,7.71955 0,15.4348 l -14.07957,4.75191 -22.1494,7.555366 -17.28392,5.563998 -0.0593,-14.506074 -15.44888,5.49489 q 0,7.114778 0,14.229622 l -9.37594,3.084312 -0.0352,-13.935848 -14.07178,4.976478 q 0,6.851284 -0.0315,13.702582 l -9.35224,3.153492 q -0.0315,-6.734644 -0.063,-13.469292 l -15.65412,5.538038 q 0.0907,6.518638 0.18154,13.037342 l -6.38875,2.121046 -0.14208,-12.860212 -14.00469,4.954878 q 0.10252,6.306958 0.19728,12.609654 l -6.26243,2.05622 q -0.20127,-6.19895 -0.39458,-12.397978 l -12.34731,4.319852 0.30776,12.216586 -6.73203,2.15988 q -0.20127,-5.90092 -0.39458,-11.80611 l -13.16022,4.57036 -0.91943,103.0287 55.29654,5.61579 -0.62747,-60.28367 21.08792,-4.08657 q 0.4696,33.15495 0.92731,66.31852 c 14.69917,1.24841 26.5256,3.02385 34.2994,4.36303 38.13106,6.51438 55.48596,15.08498 85.66167,13.02005 a 155.83888,170.59992 0 0 0 18.79918,-2.54869 l 0.56825,-86.76444 a 35.009686,38.325802 0 0 1 23.52649,-28.94304 c 5.16536,2.48394 13.04575,7.3913 17.88761,16.76108 3.15682,6.11696 3.79216,11.76732 4.10788,14.78253 2.6399,25.00337 2.29262,71.32095 2.24533,76.7423 l 18.00201,-2.1599 v -7.59862 l 10.54788,-1.04971 v -8.2078 l 7.89218,-0.60904 v -71.03144 l 0.29988,0.0389 v -0.45791 l 14.20596,1.72799 v 69.83483 l 7.89216,-0.60911 v 6.3156 l 7.89216,-0.7905 v 6.58348 l 17.81655,-2.15996 c 0,-1.99146 0,-3.97858 0,-5.97004 a 0.64321223,0.70413724 0 0 1 0.21708,-0.48376 c 1.57845,-1.45583 3.11343,-2.88571 4.65643,-4.31994 l 0.44193,-0.43199 -2.04805,0.16417 v -0.35417 c 0,0 0.25253,-7.87079 0.23679,-11.8062 0,-0.35425 0.10253,-0.4666 0.4735,-0.45357 a 2.4189516,2.6480743 0 0 0 0.60768,-0.0472 v -9.01982 h 1.32195 v -0.134 q 0,-11.31366 0,-22.62737 a 0.70240353,0.76893514 0 0 0 -0.26041,-0.61772 c -0.52881,-0.52275 -1.02601,-1.07564 -1.55872,-1.59411 a 0.5248296,0.57454142 0 0 1 -0.18546,-0.71278 l 3.33447,0.17286 c 0,-0.28941 0.0397,-0.54434 0.0471,-0.80354 a 1.2627479,1.3823553 0 0 1 0.25651,-1.0195 c 0.18543,-0.21595 0.11835,-0.47951 -0.0471,-0.73869 -0.31572,-0.48814 -0.27233,-0.72139 0.19331,-1.041 0.24465,-0.16425 0.34727,-0.35433 0.20125,-0.63505 a 0.99046793,1.0842849 0 0 1 0,-1.12315 c 0.4538,-0.86403 0.91942,-1.728 1.42456,-2.59195 0.3472,-0.57455 0.78923,-1.10591 1.21139,-1.72798 a 3.6185622,3.9613119 0 0 1 0.52485,0.56157 q 1.1128,1.81434 2.17428,3.63736 a 2.9792957,3.2614945 0 0 1 0.296,0.80782 0.91154617,0.99788772 0 0 1 -0.10253,0.93307 c -0.14999,0.21603 -0.0867,0.40605 0.13014,0.59614 0.55243,0.47522 0.56037,0.59186 0.14999,1.1491 -0.17759,0.24196 -0.17362,0.36285 0.0555,0.73008 l 2.50573,-1.37375 12.52099,-6.8729 c 0.221,-0.11657 0.3472,-0.24623 0.3275,-0.52266 a 3.220007,3.5250061 0 0 1 0.047,-0.769 1.1838261,1.2959581 0 0 1 0.1498,-0.48811 0.62742787,0.6868578 0 0 0 0,-0.86395 c -0.2565,-0.43199 -0.217,-0.6696 0.1657,-0.9288 a 0.42223133,0.46222505 0 0 0 0.1698,-0.70415 1.0693896,1.1706822 0 0 1 0.087,-1.17069 c 0.4459,-0.86395 0.9234,-1.68472 1.4087,-2.50978 0.2446,-0.43205 0.5367,-0.7992 0.8326,-1.23117 a 2.083534,2.2808862 0 0 1 0.3947,0.38446 c 0.6155,1.04969 1.2311,2.10374 1.8073,3.16648 a 6.3137395,6.9117764 0 0 1 0.4538,1.18357 0.84446271,0.92445013 0 0 1 -0.087,0.90287 c -0.1302,0.19871 -0.079,0.38017 0.1223,0.56158 0.4735,0.43197 0.4735,0.60048 0.1539,1.07136 a 0.5248296,0.57454142 0 0 0 -0.059,0.53564 1.3022088,1.4255539 0 0 1 0.1935,1.07564 c -0.051,0.46226 0.1262,0.72572 0.5248,1.01086 q 6.6058,4.70866 12.8484,9.21426 c 0.063,0.0471 0.1303,0.0864 0.2171,0.14256 a 0.56823658,0.62205988 0 0 0 0,-0.71277 c -0.2526,-0.43205 -0.2171,-0.65663 0.1579,-0.95474 0.1736,-0.13385 0.2644,-0.28941 0.1577,-0.50971 a 1.1167427,1.2225205 0 0 1 0,-1.14046 c 0.296,-0.67388 0.6117,-1.34346 0.9629,-1.98277 0.3512,-0.63939 0.6906,-1.11889 1.0733,-1.72798 a 2.9950802,3.278774 0 0 1 0.3947,0.46652 c 0.58,1.0584 1.1562,2.11673 1.7046,3.17947 a 2.4150053,2.6437546 0 0 1 0.2723,0.88988 1.0338748,1.1318034 0 0 1 -0.083,0.65228 0.39460871,0.43198604 0 0 0 0.1262,0.62642 c 0.375,0.32396 0.3947,0.55723 0.1145,0.92872 a 0.51299133,0.56158186 0 0 0 -0.032,0.66524 1.444268,1.581069 0 0 1 0.1421,0.5573 c 0.024,0.33258 0,0.6696 0,1.05406 l 2.4545,0.12528 a 0.44985393,0.49246408 0 0 1 -0.1224,0.59186 c -0.2999,0.30665 -0.5722,0.64365 -0.8682,0.95038 a 0.96679139,1.0583658 0 0 0 -0.3116,0.76457 q 0,6.47981 0,12.95961 v 6.60074 c -0.091,0 1.3219,0 1.3219,0 v 18.92098 l -1.1602,0.0907 c 0.1104,0.12093 0.1736,0.19009 0.2447,0.25921 q 1.689,1.5984 3.3463,3.18373 a 0.20914263,0.22895259 0 0 1 0.075,0.17713 c 0,1.49036 0,2.98066 0,4.47103 l 21.6561,-2.61352 c -0.019,-23.39203 0.083,-29.98848 0.035,-35.14636 0,-1.1577 0.1619,-5.61585 1.026,-7.71959 0.6117,-1.49899 3.1134,-3.52065 3.9974,-3.31333 1.4718,0.96763 3.8159,5.68924 3.9461,8.20772 0.1382,2.66533 0.3235,15.62496 1.0457,36.63672 l 5.9822,-0.62208 q -1.0496,-39.63904 -2.186,-79.27801 z"
       id="path8"
       style="fill:#ffffff;stroke-width:0.412876" />
    <path
       class="cls-2"
       d="m 608.68182,297.80037 a 6.4061567,6.4061567 0 0 1 -1.6039,4.92922 c -1.23234,1.41111 -2.91151,2.12606 -5.05152,2.12606 q -13.22151,0 -20.11687,-15.54977 a 24.15714,24.15714 0 0 1 -8.73909,1.60388 25.309493,25.309493 0 0 1 -18.1555,-7.2575 q -7.57257,-7.25282 -7.57257,-17.59103 a 25.370637,25.370637 0 0 1 7.25272,-18.11789 q 7.25286,-7.61493 17.67573,-7.61493 a 25.220126,25.220126 0 0 1 18.07561,7.25747 q 7.57257,7.25283 7.57257,17.59105 a 26.231377,26.231377 0 0 1 -13.16973,22.76487 q 7.77477,15.63444 17.95783,15.62968 a 5.2020628,5.2020628 0 0 0 3.72519,-1.72142 4.802266,4.802266 0 0 0 1.48162,-4.04969 5.5313069,5.5313069 0 0 0 -2.00366,-3.80511 6.3638251,6.3638251 0 0 0 -4.23321,-1.48636 v -0.71959 a 6.9658724,6.9658724 0 0 1 4.70357,1.68377 6.236831,6.236831 0 0 1 2.20121,4.32729 z m -13.95054,-32.62344 q 0,-10.09363 -6.58489,-17.19131 -6.58492,-7.09756 -15.71913,-6.93764 -8.9695,0.16948 -15.24397,7.45505 -6.27448,7.28571 -6.27924,17.5582 0,10.01836 6.55204,17.07364 6.55193,7.05527 15.67197,7.05527 a 19.044441,19.044441 0 0 0 8.23121,-1.84382 q -3.8475,-7.61021 -10.57817,-7.61497 -5.8559,0 -9.61862,2.40817 l -0.47036,-0.72437 a 17.595765,17.595765 0 0 1 9.87736,-2.88318 q 8.65441,0 13.64011,7.21046 a 23.954888,23.954888 0 0 0 7.69486,-9.1342 27.402544,27.402544 0 0 0 2.82683,-12.4313 z"
       id="path10"
       style="fill:#ffffff" />
    <path
       class="cls-2"
       d="m 614.53296,283.69456 a 6.8388782,6.8388782 0 0 1 -2.04605,4.96684 6.646035,6.646035 0 0 1 -4.92921,2.08368 7.1163842,7.1163842 0 0 1 -7.05528,-7.05518 v -25.81272 h 0.72435 v 25.81272 a 6.1145399,6.1145399 0 0 0 1.84374,4.44946 6.0345808,6.0345808 0 0 0 4.48719,1.88137 q 1.35931,0 2.40342,-1.88137 a 9.0307056,9.0307056 0 0 0 1.0442,-4.44946 v -25.81272 h 3.52764 z"
       id="path12"
       style="fill:#ffffff" />
    <path
       class="cls-2"
       d="m 621.98337,253.71457 q 0,1.76372 -1.83446,1.76372 -1.60853,0 -1.60853,-1.76372 0,-1.7638 1.60853,-1.7638 1.83446,0 1.83446,1.7638 z m 0,36.21683 h -3.44299 v -32.06375 h 3.44299 z"
       id="path14"
       style="fill:#ffffff" />
    <path
       class="cls-2"
       d="m 642.34471,289.94557 h -3.36772 v -25.7282 a 8.7484959,8.7484959 0 0 0 -1.08184,-4.44944 q -1.08172,-1.88136 -2.44105,-1.88136 a 6.0816159,6.0816159 0 0 0 -4.17197,1.56615 6.5848895,6.5848895 0 0 0 -2.16369,3.96517 v 26.53232 h -3.44764 v -31.98372 h 3.44764 v 3.12777 q 2.00377,-3.92264 6.33566,-3.9274 a 6.5284473,6.5284473 0 0 1 4.84933,2.12129 6.9188373,6.9188373 0 0 1 2.04128,4.93397 z"
       id="path16"
       style="fill:#ffffff" />
    <path
       class="cls-2"
       d="m 653.48732,258.60617 h -2.56343 v 31.3394 h -3.44764 v -31.3394 h -2.72803 v -0.72434 h 2.72803 v -8.49451 h 3.44764 v 8.49451 h 2.56343 z"
       id="path18"
       style="fill:#ffffff" />
    <path
       class="cls-2"
       d="m 689.79821,289.94557 h -3.44764 v -5.61131 q -5.14095,6.73544 -13.64006,6.73544 a 17.177156,17.177156 0 1 1 17.11126,-17.15368 z m -3.44764,-16.02955 q 0,-6.81535 -4.0074,-11.6224 -4.00731,-4.8069 -9.69853,-4.81155 -5.61605,0 -9.61872,4.81155 -4.00267,4.8117 -4.00733,11.6224 0,6.81533 4.00733,11.62238 4.00742,4.8069 9.61872,4.8069 5.68645,0 9.69853,-4.8069 4.01217,-4.80705 4.0074,-11.62238 z"
       id="path20"
       style="fill:#ffffff" />
    <path
       class="cls-2"
       d="m 767.06722,265.25694 a 25.224831,25.224831 0 0 1 -7.25274,18.07548 q -7.25748,7.57734 -17.59583,7.57734 a 25.173092,25.173092 0 0 1 -18.03784,-7.2152 q -7.52564,-7.21986 -7.52564,-17.55808 a 25.201314,25.201314 0 0 1 7.25748,-18.07084 q 7.25282,-7.57734 17.59582,-7.57734 a 25.173092,25.173092 0 0 1 18.03319,7.21512 q 7.52556,7.21045 7.52556,17.55352 z m -3.29247,0 q 0,-10.09372 -6.58481,-17.1913 -6.5849,-7.09755 -15.60159,-6.93298 -8.96008,0.16476 -15.23931,7.49266 -6.27912,7.3281 -6.28377,17.51116 0,10.02777 6.58478,17.03602 6.58495,7.00826 15.60159,7.01288 8.93663,0 15.24399,-7.33274 6.30735,-7.33272 6.28387,-17.5957 z"
       id="path22"
       style="fill:#ffffff" />
    <path
       class="cls-2"
       d="m 783.49651,283.69456 a 6.8529885,6.8529885 0 0 1 -2.04128,4.96684 6.6507385,6.6507385 0 0 1 -4.92933,2.08368 7.1163842,7.1163842 0 0 1 -7.05517,-7.05518 v -25.81272 h 0.71959 v 25.81272 a 6.1521682,6.1521682 0 0 0 1.84374,4.44946 6.0439877,6.0439877 0 0 0 4.49184,1.88137 c 0.90311,0 1.70737,-0.62557 2.4035,-1.88137 a 9.082444,9.082444 0 0 0 1.03947,-4.44946 v -25.81272 h 3.52764 z"
       id="path24"
       style="fill:#ffffff" />
    <path
       class="cls-2"
       d="m 795.1189,258.60617 h -2.56345 v 31.3394 h -3.44762 v -31.3394 h -2.72338 v -0.72434 h 2.72338 v -8.49451 h 3.44762 v 8.49451 h 2.56345 z"
       id="path26"
       style="fill:#ffffff" />
    <path
       class="cls-2"
       d="m 829.66596,281.61089 a 17.313557,17.313557 0 0 1 -6.2509,6.85309 17.14423,17.14423 0 1 1 -9.05892,-31.70164 16.960794,16.960794 0 0 1 15.14991,9.13895 l -28.45611,11.62226 a 16.866725,16.866725 0 0 0 4.7694,9.17661 q 3.72511,3.64981 8.5368,3.64514 a 11.641144,11.641144 0 0 0 7.49742,-2.68096 16.462223,16.462223 0 0 0 5.00914,-7.09756 z m -3.17947,-15.38511 a 14.745448,14.745448 0 0 0 -4.93398,-6.37318 11.90454,11.90454 0 0 0 -7.17293,-2.35171 q -5.61119,0 -9.6186,4.81165 -4.0073,4.8116 -4.0073,11.62229 c 0,0.6397 0.0521,1.60389 0.16,2.8833 z"
       id="path28"
       style="fill:#ffffff" />
    <path
       class="cls-2"
       d="m 837.04109,253.71457 q 0,1.76372 -1.83906,1.76372 -1.60856,0 -1.60856,-1.76372 0,-1.7638 1.60856,-1.7638 1.84381,0 1.83906,1.7638 z m 0,36.21683 h -3.44762 v -32.06375 h 3.44762 z"
       id="path30"
       style="fill:#ffffff" />
    <path
       class="cls-2"
       d="m 850.02741,259.1706 c 0,1.41101 -0.7196,2.08358 -2.16356,2.08358 -1.444,0 -2.1637,-0.69138 -2.1637,-2.08358 a 2.140089,2.140089 0 0 1 0.47037,-1.28403 q -1.60852,0.64433 -2.00366,2.64801 v 29.41563 h -3.44772 v -32.06364 h 3.44772 v 0.8137 q 1.19939,-1.68858 3.68757,-1.68392 2.17298,-0.0145 2.17298,2.15425 z"
       id="path32"
       style="fill:#ffffff" />
    <path
       class="cls-2"
       d="m 886.57824,273.99593 a 16.974905,16.974905 0 1 1 -4.97159,-12.10205 16.462223,16.462223 0 0 1 4.97159,12.10205 z m -3.44762,0 q 0,-6.81523 -3.96502,-11.58464 -3.96515,-4.7693 -9.661,-4.7693 -5.61597,0 -9.58111,4.7693 -3.96502,4.76941 -3.96502,11.58464 0,6.73066 3.96502,11.54247 3.96514,4.81157 9.58111,4.8069 5.6112,0 9.61862,-4.8069 4.0074,-4.80705 4.0074,-11.54247 z"
       id="path34"
       style="fill:#ffffff" />
    <path
       class="cls-2"
       d="m 947.25801,273.91602 a 17.148933,17.148933 0 1 1 -17.15365,-17.15368 q 8.73441,0 13.70603,6.8107 v -22.44038 h 3.44762 z m -3.44762,0 q 0,-6.81535 -4.00741,-11.6224 -4.00742,-4.8069 -9.69862,-4.81155 -5.61597,0 -9.61863,4.81155 -4.00264,4.8117 -4.01205,11.6224 0,6.81533 4.01205,11.62238 4.01208,4.8069 9.61863,4.8069 5.68657,0 9.69862,-4.8069 4.01205,-4.80705 4.00741,-11.62238 z"
       id="path36"
       style="fill:#ffffff" />
    <path
       class="cls-2"
       d="m 984.36852,289.94557 h -3.44762 v -5.61131 q -5.14094,6.73544 -13.64008,6.73544 a 17.177156,17.177156 0 1 1 17.11127,-17.15368 z m -3.44762,-16.02955 q 0,-6.81535 -4.0074,-11.6224 -4.00732,-4.8069 -9.69852,-4.81155 -5.60655,0 -9.61862,4.81155 -4.01218,4.8117 -4.00743,11.6224 0,6.81533 4.00743,11.62238 4.00729,4.8069 9.61862,4.8069 5.68645,0 9.69852,-4.8069 4.01216,-4.80705 4.0074,-11.62238 z"
       id="path38"
       style="fill:#ffffff" />
    <path
       class="cls-2"
       d="m 1046.3277,273.43625 a 16.377561,16.377561 0 0 1 -5.2114,12.13977 17.957934,17.957934 0 0 1 -25.0085,0.042 16.767952,16.767952 0 0 1 -2.0414,-21.96061 17.647505,17.647505 0 0 1 8.2124,-6.33555 l 0.3245,0.7196 a 16.71151,16.71151 0 0 0 -7.9959,5.97344 15.521526,15.521526 0 0 0 -3.0855,9.40702 q 0,6.73067 5.1738,11.61762 5.1738,4.88694 11.9045,4.89159 5.7712,0 9.9384,-4.84932 4.1674,-4.84932 4.1674,-11.65989 0,-6.66019 -3.7252,-11.02498 a 14.185733,14.185733 0 0 0 -9.581,-5.00922 q -4.0826,-0.47037 -6.4908,-2.88331 a 7.5255882,7.5255882 0 0 1 -2.2436,-5.93579 8.386327,8.386327 0 0 1 2.4035,-5.60655 7.3797798,7.3797798 0 0 1 5.5313,-2.35174 7.9394954,7.9394954 0 0 1 7.9348,7.93481 7.5255882,7.5255882 0 0 1 -0.9642,3.68756 l -0.3998,-0.16 a 7.0270177,7.0270177 0 0 0 0.8842,-3.44287 7.257489,7.257489 0 0 0 -2.1635,-5.25384 7.0552387,7.0552387 0 0 0 -5.2115,-2.20119 4.2049226,4.2049226 0 0 0 -3.4054,1.76381 q -1.411,1.76383 -1.411,4.80692 0,5.93582 5.8512,6.49085 a 17.285335,17.285335 0 0 1 11.8622,6.33555 19.321947,19.321947 0 0 1 4.7505,12.86406 z"
       id="path40"
       style="fill:#ffffff" />
    <path
       class="cls-2"
       d="m 1081.3545,281.61089 a 17.34648,17.34648 0 0 1 -6.2508,6.85309 17.14423,17.14423 0 1 1 -9.0589,-31.70164 16.960794,16.960794 0 0 1 15.1498,9.13895 l -28.4702,11.61288 a 16.866725,16.866725 0 0 0 4.7694,9.17656 q 3.7252,3.64984 8.5368,3.64519 a 11.641144,11.641144 0 0 0 7.4973,-2.68101 16.462223,16.462223 0 0 0 5.0093,-7.09754 z m -3.2031,-15.38976 a 14.778374,14.778374 0 0 0 -4.9339,-6.37331 11.90454,11.90454 0 0 0 -7.1727,-2.35169 q -5.6113,0 -9.6187,4.81168 -4.0074,4.81168 -4.0074,11.62237 c 0,0.63959 0.052,1.6039 0.16,2.88318 z"
       id="path42"
       style="fill:#ffffff" />
    <path
       class="cls-2"
       d="m 1094.5007,259.1706 c 0,1.41101 -0.7195,2.08358 -2.1635,2.08358 -1.4439,0 -2.1635,-0.69138 -2.1635,-2.08358 a 2.140089,2.140089 0 0 1 0.4703,-1.28403 q -1.6039,0.64433 -2.0037,2.64801 v 29.41563 h -3.4476 v -32.06364 h 3.4476 v 0.8137 q 1.2088,-1.68858 3.6876,-1.68392 2.1728,-0.0145 2.1728,2.15425 z"
       id="path44"
       style="fill:#ffffff" />
    <path
       class="cls-2"
       d="m 1113.4982,257.88183 -8.659,35.91111 -8.6544,-35.91111 h 3.5275 l 6.585,27.01686 6.4908,-27.01686 z"
       id="path46"
       style="fill:#ffffff" />
    <path
       class="cls-2"
       d="m 1149.4893,289.94557 h -3.4477 v -5.61131 q -5.1408,6.73544 -13.6635,6.73544 a 17.177156,17.177156 0 1 1 17.1112,-17.15368 z m -3.4477,-16.02955 q 0,-6.81535 -4.0073,-11.6224 -4.0073,-4.8069 -9.6985,-4.81155 -5.6159,0 -9.6188,4.81155 -4.0026,4.8117 -4.0074,11.6224 0,6.81533 4.0074,11.62238 4.0075,4.8069 9.6188,4.8069 5.6864,0 9.6985,-4.8069 4.012,-4.80705 4.0073,-11.62238 z"
       id="path48"
       style="fill:#ffffff" />
  </g>
</svg>
