<?xml version="1.0" encoding="UTF-8" standalone="no"?>
<svg
   xmlns:dc="http://purl.org/dc/elements/1.1/"
   xmlns:cc="http://creativecommons.org/ns#"
   xmlns:rdf="http://www.w3.org/1999/02/22-rdf-syntax-ns#"
   xmlns:svg="http://www.w3.org/2000/svg"
   xmlns="http://www.w3.org/2000/svg"
   xmlns:sodipodi="http://sodipodi.sourceforge.net/DTD/sodipodi-0.dtd"
   xmlns:inkscape="http://www.inkscape.org/namespaces/inkscape"
   id="Layer_1"
   data-name="Layer 1"
   viewBox="0 0 1287.5378 750.00002"
   version="1.1"
   sodipodi:docname="logo_w.svg"
   inkscape:version="1.0.2-2 (e86c870879, 2021-01-15)"
   width="1287.5378"
   height="750">
  <metadata
     id="metadata53">
    <rdf:RDF>
      <cc:Work
         rdf:about="">
        <dc:format>image/svg+xml</dc:format>
        <dc:type
           rdf:resource="http://purl.org/dc/dcmitype/StillImage" />
        <dc:title>Completo Branco</dc:title>
      </cc:Work>
    </rdf:RDF>
  </metadata>
  <sodipodi:namedview
     pagecolor="#ffffff"
     bordercolor="#999999"
     borderopacity="1"
     objecttolerance="10"
     gridtolerance="10"
     guidetolerance="10"
     inkscape:pageopacity="0"
     inkscape:pageshadow="2"
     inkscape:window-width="1366"
     inkscape:window-height="705"
     id="namedview51"
     showgrid="false"
     inkscape:zoom="0.15762863"
     inkscape:cx="671.39237"
     inkscape:cy="274.41928"
     inkscape:window-x="1912"
     inkscape:window-y="295"
     inkscape:window-maximized="1"
     inkscape:current-layer="Layer_1"
     inkscape:document-rotation="0"
     scale-x="1"
     lock-margins="true"
     fit-margin-top="-100"
     fit-margin-left="-100"
     fit-margin-right="-100"
     fit-margin-bottom="-100" />
  <defs
     id="defs4">
    <style
       id="style2">.cls-1,.cls-2{fill:#fff;}.cls-2{stroke:#fff;stroke-miterlimit:10;stroke-width:0.25px;}</style>
  </defs>
  <title
     id="title6">Completo Branco</title>
  <path
     class="cls-1"
     d="m 1035.3484,262.38311 -21.3023,-7.49409 -0.1052,20.5069 -9.921,-3.22821 v -20.93733 l -7.52681,-2.69788 0.0983,21.19866 -7.82158,-2.64405 q 0.0983,-10.58397 0.1825,-21.17562 l -8.84669,-3.14368 0.12638,21.39851 -8.41835,-2.7363 q 0,-10.76075 0,-21.55992 l -9.82976,-3.45881 0.0633,21.80588 -6.10143,-1.98306 q 0.0633,-10.96827 0.11946,-21.93653 l -12.42058,-4.45803 q -0.0486,11.08356 -0.0912,22.17482 l -5.7153,-1.89082 q 0,-11.13736 0.056,-22.29011 l -16.85085,-5.99527 q 0,11.36795 0,22.72823 l -5.61697,-1.88313 q 0.0633,-11.41408 0.11939,-22.81278 l -16.92813,-5.96452 -0.0843,23.05873 -5.69418,-1.83701 v -21.9596 l -15.70644,-5.59559 v 22.05184 l -7.83564,-2.59796 q 0,-11.13736 0,-23.12022 l -19.70851,-7.00217 q 0,12.17501 0,24.35002 l -11.26899,-3.75088 q 0,-12.23651 0.0561,-24.47301 l -19.75061,-7.07135 0.042,25.01105 -11.2901,-3.78932 v -25.17246 l -22.39762,-8.12436 -0.0703,25.88727 -14.11258,-4.71935 v -25.85653 l -25.1569,-8.93142 v 26.54829 l -13.99321,-4.73472 q 0.042,-13.37407 0.0772,-26.74814 l -28.2954,-9.73079 q 0.10534,13.59697 0.22465,27.17089 l -19.65932,-6.61787 v -27.70122 l -33.23838,-11.6293 q -0.042,14.1965 -0.0702,28.38531 l -16.73853,-5.6417 q -0.0773,-14.43477 -0.14043,-28.87723 l -22.5381,-17.67836 -46.85243,17.14033 q 0,13.73532 0,27.46295 l -25.05165,8.45487 -39.40993,13.44325 -30.75285,9.89988 -0.10539,-25.81041 -27.48794,9.77691 q 0,12.65923 0,25.31849 l -16.68239,5.48798 -0.0632,-24.79583 -25.03761,8.85455 q 0,12.19039 -0.0562,24.38077 l -16.64022,5.61097 q -0.0561,-11.98286 -0.11235,-23.96572 l -27.85307,9.85377 q 0.16153,11.59854 0.32302,23.19708 l -11.36737,3.77396 -0.25277,-22.88196 -24.9182,8.81613 q 0.18254,11.22192 0.35104,22.43614 l -11.14261,3.65866 q -0.35811,-11.02976 -0.70218,-22.05953 l -21.96928,7.68624 0.54761,21.73672 -11.97813,3.84312 q -0.35811,-10.49942 -0.70213,-21.00652 l -23.41569,8.13205 -1.63596,183.31698 98.38805,9.9921 -1.11638,-107.26154 37.52131,-7.27118 q 0.83552,58.99189 1.65,117.9992 c 26.15394,2.22132 47.1965,5.38036 61.02823,7.76312 67.84586,11.59089 98.72505,26.84037 152.41616,23.16636 a 277.28117,303.54522 0 0 0 33.44905,-4.53489 l 1.01099,-154.37825 a 62.292072,68.192372 0 0 1 41.86045,-51.49785 c 9.19075,4.4196 23.21204,13.15118 31.82706,29.82264 5.61698,10.88372 6.74735,20.93733 7.3091,26.30233 4.69717,44.48802 4.07932,126.89995 3.99505,136.54617 l 32.03071,-3.84314 v -13.52009 l 18.76764,-1.86774 V 407.584 l 14.0424,-1.08378 V 280.11529 l 0.53362,0.0691 v -0.81474 l 25.27635,3.07449 v 124.2559 l 14.04239,-1.08379 v 11.23726 l 14.0424,-1.40653 v 11.71383 l 31.70068,-3.84309 c 0,-3.54343 0,-7.07908 0,-10.62245 a 1.1444553,1.2528581 0 0 1 0.38618,-0.86083 c 2.80848,-2.59028 5.53972,-5.1344 8.28499,-7.68624 l 0.7864,-0.76863 -3.64402,0.29207 v -0.63024 c 0,0 0.44934,-14.00438 0.42127,-21.00656 0,-0.63024 0.18259,-0.83011 0.84255,-0.80703 a 4.3039947,4.7116683 0 0 0 1.08128,-0.0845 V 365.0944 h 2.35207 v -0.23827 q 0,-20.13025 0,-40.26056 a 1.2497734,1.3681517 0 0 0 -0.46338,-1.09914 c -0.94087,-0.93002 -1.82552,-1.91384 -2.7734,-2.8362 a 0.93381942,1.0222707 0 0 1 -0.32998,-1.26823 l 5.93292,0.30744 c 0,-0.51496 0.0703,-0.96846 0.0842,-1.42967 a 2.2467835,2.4595986 0 0 1 0.45641,-1.81392 c 0.32998,-0.38432 0.21062,-0.85319 -0.0843,-1.31433 -0.56165,-0.86855 -0.48444,-1.2836 0.34401,-1.85243 0.43537,-0.29206 0.61791,-0.63024 0.35811,-1.12988 a 1.7623208,1.9292478 0 0 1 0,-1.99838 c 0.80746,-1.53727 1.63596,-3.07452 2.53466,-4.61177 0.61785,-1.02227 1.40424,-1.96768 2.1555,-3.0745 a 6.4384391,7.0482876 0 0 1 0.93378,0.99921 q 1.98004,3.22823 3.86872,6.47183 a 5.3010045,5.8031154 0 0 1 0.52661,1.43732 1.6218968,1.7755228 0 0 1 -0.18259,1.66026 c -0.26676,0.38427 -0.15441,0.72248 0.23172,1.06065 0.98297,0.84552 0.997,1.05305 0.26681,2.04459 -0.31594,0.43041 -0.30887,0.64559 0.0983,1.29896 l 4.45844,-2.44422 22.27829,-12.22883 c 0.39314,-0.20753 0.61784,-0.43812 0.58278,-0.93004 a 5.7292976,6.2719768 0 0 1 0.0842,-1.36816 2.1063595,2.3058737 0 0 1 0.26683,-0.86854 1.1163705,1.2221131 0 0 0 0,-1.53725 c -0.45633,-0.76863 -0.38614,-1.19136 0.29489,-1.65254 a 0.75126823,0.82242823 0 0 0 0.30189,-1.25286 1.9027447,2.0829726 0 0 1 0.15451,-2.08297 c 0.79342,-1.53724 1.64296,-2.99764 2.50657,-4.46571 0.43534,-0.76862 0.95485,-1.42196 1.48144,-2.19058 a 3.7071927,4.0583379 0 0 1 0.7021,0.68408 c 1.09538,1.86776 2.19068,3.7432 3.21573,5.63401 a 11.233917,12.297994 0 0 1 0.80741,2.10603 1.5025365,1.6448566 0 0 1 -0.15437,1.60643 c -0.23177,0.35357 -0.14052,0.67639 0.21763,0.99921 0.84254,0.76863 0.84254,1.06839 0.27383,1.90619 a 0.93381942,1.0222707 0 0 0 -0.10539,0.9531 2.3169954,2.5364611 0 0 1 0.34408,1.91387 c -0.0912,0.82244 0.22463,1.29129 0.9338,1.79858 q 11.75346,8.378 22.86103,16.3948 c 0.11239,0.0845 0.2317,0.15371 0.38614,0.25362 a 1.0110526,1.1068194 0 0 0 0,-1.26823 c -0.44933,-0.76864 -0.38614,-1.16833 0.2809,-1.69865 0.30888,-0.23826 0.47039,-0.51502 0.28082,-0.90699 a 1.9869991,2.1752076 0 0 1 0,-2.02917 c 0.52659,-1.19905 1.08831,-2.3904 1.71322,-3.528 0.62484,-1.13753 1.22868,-1.99072 1.90971,-3.07449 a 5.3290895,5.833861 0 0 1 0.70217,0.8301 c 1.03212,1.88315 2.05724,3.76626 3.03316,5.65712 a 4.2969734,4.7039824 0 0 1 0.48446,1.58332 1.839554,2.0137964 0 0 1 -0.14745,1.16062 0.70211986,0.7686246 0 0 0 0.22463,1.11452 c 0.66704,0.57648 0.70217,0.99152 0.20364,1.65254 a 0.91275578,0.99921198 0 0 0 -0.056,1.1837 2.5697586,2.813166 0 0 1 0.25269,0.99153 c 0.042,0.59185 0,1.19135 0,1.87544 l 4.36722,0.2229 a 0.80041659,0.87623208 0 0 1 -0.2177,1.053 c -0.53351,0.54574 -1.01805,1.14524 -1.54464,1.691 a 1.7201937,1.8831302 0 0 0 -0.55465,1.36042 q 0,11.52938 0,23.05875 v 11.74462 c -0.16151,0 2.35205,0 2.35205,0 v 33.66576 l -2.06423,0.16138 c 0.19664,0.21523 0.30896,0.33822 0.43534,0.46121 q 3.00509,2.84389 5.95399,5.66472 a 0.37212351,0.40737102 0 0 1 0.13338,0.31515 c 0,2.65179 0,5.30353 0,7.95527 l 38.53237,-4.65017 c -0.035,-41.62099 0.1475,-53.35795 0.063,-62.53531 0,-2.0599 0.2879,-9.99209 1.8255,-13.73533 1.0883,-2.66711 5.5397,-6.26428 7.1125,-5.89532 2.6189,1.72172 6.7895,10.12278 7.0211,14.60387 0.2458,4.74237 0.5758,27.80113 1.8607,65.18705 l 10.6441,-1.10686 q -1.8677,-70.52898 -3.8897,-141.05797 z"
     id="path8"
     style="stroke-width:0.73462" />
  <path
     class="cls-2"
     d="m 361.64684,555.68359 a 7.5381707,7.5381707 0 0 1 -1.8873,5.80031 c -1.45008,1.66038 -3.42597,2.50165 -5.9442,2.50165 q -15.55787,0 -23.6716,-18.29751 a 28.425878,28.425878 0 0 1 -10.28336,1.88731 29.781863,29.781863 0 0 1 -21.36372,-8.53995 q -8.91075,-8.53436 -8.91075,-20.6995 a 29.853813,29.853813 0 0 1 8.53441,-21.31943 q 8.53441,-8.96058 20.7992,-8.96058 a 29.676704,29.676704 0 0 1 21.26955,8.53994 q 8.91076,8.53442 8.91076,20.69951 a 30.866651,30.866651 0 0 1 -15.49694,26.78763 q 9.1487,18.39714 21.1312,18.39162 a 6.1213047,6.1213047 0 0 0 4.38346,-2.02566 5.650861,5.650861 0 0 0 1.74337,-4.76534 6.508729,6.508729 0 0 0 -2.35776,-4.47752 7.488359,7.488359 0 0 0 -4.98116,-1.74895 v -0.8468 a 8.1967922,8.1967922 0 0 1 5.53462,1.98141 7.3389237,7.3389237 0 0 1 2.59022,5.09186 z m -16.41573,-38.38825 q 0,-11.87728 -7.74845,-20.22905 -7.74849,-8.35177 -18.49674,-8.1636 -10.55453,0.19929 -17.9378,8.77241 -7.38315,8.57313 -7.38873,20.6608 0,11.78874 7.70978,20.09069 7.70974,8.30195 18.44139,8.30195 a 22.409731,22.409731 0 0 0 9.68562,-2.16958 q -4.52735,-8.955 -12.44737,-8.96058 -6.89064,0 -11.31835,2.83374 l -0.5535,-0.85233 a 20.705064,20.705064 0 0 1 11.62279,-3.39273 q 10.18373,0 16.05039,8.48459 a 28.187888,28.187888 0 0 0 9.0547,-10.74824 32.244775,32.244775 0 0 0 3.32627,-14.62807 z"
     id="path10" />
  <path
     class="cls-2"
     d="m 368.53194,539.08522 a 8.0473572,8.0473572 0 0 1 -2.40758,5.84455 7.8204379,7.8204379 0 0 1 -5.80031,2.45187 8.3739006,8.3739006 0 0 1 -8.3019,-8.30195 v -30.37406 h 0.85228 v 30.37406 a 7.1950234,7.1950234 0 0 0 2.16959,5.2358 7.1009347,7.1009347 0 0 0 5.28003,2.21382 q 1.59949,0 2.82822,-2.21382 a 10.626497,10.626497 0 0 0 1.22867,-5.2358 v -30.37406 h 4.151 z"
     id="path12" />
  <path
     class="cls-2"
     d="m 377.29883,503.80747 q 0,2.07547 -2.15853,2.07547 -1.89284,0 -1.89284,-2.07547 0,-2.07548 1.89284,-2.07548 2.15853,0 2.15853,2.07548 z m 0,42.61667 h -4.05137 v -37.72963 h 4.05137 z"
     id="path14" />
  <path
     class="cls-2"
     d="m 401.25824,546.44073 h -3.96283 v -30.27442 a 10.294418,10.294418 0 0 0 -1.27297,-5.2358 q -1.27296,-2.21383 -2.87245,-2.21383 a 7.1562809,7.1562809 0 0 0 -4.90923,1.84301 7.7484867,7.7484867 0 0 0 -2.54593,4.66576 v 31.22086 h -4.05688 V 508.8108 h 4.05688 v 3.68049 q 2.35776,-4.61588 7.45516,-4.62141 a 7.6820709,7.6820709 0 0 1 5.7062,2.49617 8.1414458,8.1414458 0 0 1 2.40205,5.80579 z"
     id="path16" />
  <path
     class="cls-2"
     d="m 414.36977,509.56348 h -3.01634 v 36.87725 h -4.05694 v -36.87725 h -3.21009 v -0.85233 h 3.21009 v -9.99555 h 4.05694 v 9.99555 h 3.01634 z"
     id="path18" />
  <path
     class="cls-2"
     d="m 457.09709,546.44073 h -4.05683 v -6.60277 q -6.04937,7.92561 -16.05045,7.92561 a 20.212482,20.212482 0 1 1 20.13498,-20.18481 z m -4.05683,-18.86197 q 0,-8.01972 -4.71552,-13.67615 -4.71552,-5.65638 -11.4124,-5.66191 -6.60841,0 -11.3184,5.66191 -4.70994,5.66196 -4.71547,13.67615 0,8.01962 4.71547,13.67604 4.71557,5.65639 11.3184,5.65639 6.6914,0 11.4124,-5.65639 4.72104,-5.65642 4.71552,-13.67604 z"
     id="path20" />
  <path
     class="cls-2"
     d="m 548.0201,517.38945 a 29.68224,29.68224 0 0 1 -8.53441,21.2696 q -8.5399,8.9163 -20.70509,8.9163 a 29.621359,29.621359 0 0 1 -21.22531,-8.49013 q -8.85541,-8.49566 -8.85541,-20.6608 a 29.654566,29.654566 0 0 1 8.53995,-21.26402 q 8.53441,-8.91633 20.70508,-8.91633 a 29.621359,29.621359 0 0 1 21.21979,8.49012 q 8.8554,8.48459 8.8554,20.65526 z m -3.8743,0 q 0,-11.87732 -7.74844,-20.22905 -7.7485,-8.35182 -18.35839,-8.15807 -10.54348,0.1937 -17.93222,8.81665 -7.38869,8.623 -7.39427,20.60544 0,11.79986 7.7485,20.04646 7.74849,8.2466 18.35838,8.25214 10.51583,0 17.93775,-8.62848 7.42192,-8.62853 7.39427,-20.70509 z"
     id="path22" />
  <path
     class="cls-2"
     d="m 567.35258,539.08522 a 8.0639614,8.0639614 0 0 1 -2.40205,5.84455 7.8259718,7.8259718 0 0 1 -5.80032,2.45187 8.3739006,8.3739006 0 0 1 -8.30195,-8.30195 v -30.37406 h 0.84685 v 30.37406 a 7.2393005,7.2393005 0 0 0 2.16954,5.2358 7.1120039,7.1120039 0 0 0 5.28556,2.21382 c 1.06268,0 2.00907,-0.7361 2.82822,-2.21382 a 10.687377,10.687377 0 0 0 1.22315,-5.2358 v -30.37406 h 4.151 z"
     id="path24" />
  <path
     class="cls-2"
     d="m 581.02863,509.56348 h -3.01634 v 36.87725 h -4.05689 v -36.87725 h -3.20456 v -0.85233 h 3.20456 v -9.99555 h 4.05689 v 9.99555 h 3.01634 z"
     id="path26" />
  <path
     class="cls-2"
     d="m 621.68053,536.6334 a 20.372986,20.372986 0 0 1 -7.35552,8.06396 20.173739,20.173739 0 1 1 -10.65971,-37.30346 19.957888,19.957888 0 0 1 17.82705,10.75382 l -33.48451,13.67605 a 19.847195,19.847195 0 0 0 5.61209,10.79806 q 4.38342,4.29488 10.04537,4.28936 a 13.698218,13.698218 0 0 0 8.82218,-3.15474 19.371217,19.371217 0 0 0 5.89443,-8.35178 z m -3.74138,-18.1038 a 17.351076,17.351076 0 0 0 -5.8059,-7.49945 14.008157,14.008157 0 0 0 -8.4403,-2.76728 q -6.60277,0 -11.31828,5.66191 -4.71552,5.66191 -4.71552,13.67605 c 0,0.75273 0.0609,1.88735 0.18817,3.39278 z"
     id="path28" />
  <path
     class="cls-2"
     d="m 630.35882,503.80747 q 0,2.07547 -2.164,2.07547 -1.89284,0 -1.89284,-2.07547 0,-2.07548 1.89284,-2.07548 2.16958,0 2.164,2.07548 z m 0,42.61667 h -4.05684 v -37.72963 h 4.05684 z"
     id="path30" />
  <path
     class="cls-2"
     d="m 645.63999,510.22765 c 0,1.66037 -0.8468,2.45181 -2.54598,2.45181 -1.69913,0 -2.54594,-0.81357 -2.54594,-2.45181 a 2.5182582,2.5182582 0 0 1 0.55352,-1.51097 q -1.89284,0.75828 -2.35777,3.11598 v 34.61365 h -4.05693 v -37.72963 h 4.05693 v 0.95751 q 1.41137,-1.98695 4.33913,-1.98142 2.55704,-0.0165 2.55704,2.53488 z"
     id="path32" />
  <path
     class="cls-2"
     d="m 688.64959,527.67282 a 19.974492,19.974492 0 1 1 -5.85008,-14.24062 19.371217,19.371217 0 0 1 5.85008,14.24062 z m -4.05688,0 q 0,-8.01967 -4.6657,-13.63181 -4.66569,-5.61214 -11.36816,-5.61214 -6.60835,0 -11.27405,5.61214 -4.66569,5.61214 -4.66569,13.63181 0,7.92002 4.66569,13.58198 4.6657,5.66191 11.27405,5.65639 6.60282,0 11.31834,-5.65639 4.71552,-5.65642 4.71552,-13.58198 z"
     id="path34" />
  <path
     class="cls-2"
     d="M 760.05191,527.57876 A 20.179274,20.179274 0 1 1 739.8671,507.3939 q 10.27778,0 16.12792,8.01419 v -26.40576 h 4.05689 z m -4.05689,0 q 0,-8.01972 -4.71552,-13.67615 -4.71547,-5.65638 -11.4124,-5.66191 -6.60835,0 -11.31834,5.66191 -4.70994,5.66196 -4.721,13.67615 0,8.01962 4.721,13.67604 4.7211,5.65639 11.31834,5.65639 6.69135,0 11.4124,-5.65639 4.72105,-5.65642 4.71552,-13.67604 z"
     id="path36" />
  <path
     class="cls-2"
     d="m 803.72019,546.44073 h -4.05688 v -6.60277 q -6.04937,7.92561 -16.05045,7.92561 a 20.212482,20.212482 0 1 1 20.13498,-20.18481 z m -4.05688,-18.86197 q 0,-8.01972 -4.71558,-13.67615 -4.71546,-5.65638 -11.41234,-5.66191 -6.5973,0 -11.31835,5.66191 -4.72104,5.66196 -4.71557,13.67615 0,8.01962 4.71557,13.67604 4.71552,5.65639 11.31835,5.65639 6.69129,0 11.41234,-5.65639 4.72111,-5.65642 4.71558,-13.67604 z"
     id="path38" />
  <path
     class="cls-2"
     d="m 876.62793,527.01419 a 19.271594,19.271594 0 0 1 -6.13242,14.28491 21.131231,21.131231 0 0 1 -29.42767,0.05 19.730969,19.730969 0 0 1 -2.402,-25.84118 20.765945,20.765945 0 0 1 9.66345,-7.45515 l 0.38193,0.8468 a 19.664553,19.664553 0 0 0 -9.40887,7.02899 18.264291,18.264291 0 0 0 -3.63078,11.06928 q 0,7.92003 6.08813,13.67052 6.08807,5.75049 14.00815,5.75602 6.79099,0 11.69463,-5.7062 4.90375,-5.7062 4.90375,-13.72034 0,-7.83708 -4.38342,-12.97318 a 16.692455,16.692455 0 0 0 -11.27405,-5.89437 q -4.80404,-0.55351 -7.63784,-3.39273 a 8.8554136,8.8554136 0 0 1 -2.63999,-6.98475 9.8682513,9.8682513 0 0 1 2.82821,-6.59729 8.6838399,8.6838399 0 0 1 6.50871,-2.76728 9.3424614,9.3424614 0 0 1 9.33693,9.33692 8.8554136,8.8554136 0 0 1 -1.13462,4.33918 l -0.4704,-0.18823 a 8.2687426,8.2687426 0 0 0 1.04045,-4.05136 8.5399397,8.5399397 0 0 0 -2.54588,-6.18213 8.3019502,8.3019502 0 0 0 -6.13237,-2.59022 4.9479625,4.9479625 0 0 0 -4.00707,2.07547 q -1.66042,2.07548 -1.66042,5.65638 0,6.9847 6.88511,7.63779 a 20.339778,20.339778 0 0 1 13.95838,7.45516 22.736274,22.736274 0 0 1 5.58997,15.13723 z"
     id="path40" />
  <path
     class="cls-2"
     d="m 917.84433,536.6334 a 20.411728,20.411728 0 0 1 -7.35553,8.06396 20.173739,20.173739 0 1 1 -10.65972,-37.30346 19.957888,19.957888 0 0 1 17.82708,10.75382 l -33.50113,13.66499 a 19.847195,19.847195 0 0 0 5.61208,10.79806 q 4.38341,4.29489 10.04537,4.2893 a 13.698218,13.698218 0 0 0 8.82221,-3.15468 19.371217,19.371217 0 0 0 5.89434,-8.35178 z m -3.76913,-18.10933 a 17.389818,17.389818 0 0 0 -5.80581,-7.49945 14.008157,14.008157 0 0 0 -8.44031,-2.76733 q -6.60283,0 -11.31829,5.66196 -4.71558,5.66196 -4.71558,13.6761 c 0,0.75269 0.0609,1.8873 0.18823,3.39273 z"
     id="path42" />
  <path
     class="cls-2"
     d="m 933.3136,510.22765 c 0,1.66037 -0.84681,2.45181 -2.54597,2.45181 -1.69907,0 -2.54589,-0.81357 -2.54589,-2.45181 a 2.5182582,2.5182582 0 0 1 0.55347,-1.51097 q -1.88725,0.75828 -2.35772,3.11598 v 34.61365 h -4.05694 v -37.72963 h 4.05694 v 0.95751 q 1.42238,-1.98695 4.3391,-1.98142 2.55701,-0.0165 2.55701,2.53488 z"
     id="path44" />
  <path
     class="cls-2"
     d="m 955.668,508.71115 -10.18931,42.25692 -10.18372,-42.25692 h 4.151 l 7.74852,31.79091 7.63782,-31.79091 z"
     id="path46" />
  <path
     class="cls-2"
     d="m 998.01902,546.44073 h -4.05687 v -6.60277 q -6.04937,7.92561 -16.0782,7.92561 a 20.212482,20.212482 0 1 1 20.13507,-20.18481 z m -4.05687,-18.86197 q 0,-8.01972 -4.71551,-13.67615 -4.71559,-5.65638 -11.4124,-5.66191 -6.60837,0 -11.31835,5.66191 -4.70999,5.66196 -4.71552,13.67615 0,8.01962 4.71552,13.67604 4.71551,5.65639 11.31835,5.65639 6.69136,0 11.4124,-5.65639 4.72103,-5.65642 4.71551,-13.67604 z"
     id="path48" />
</svg>
